<?xml version="1.0" standalone="no"?>
<!DOCTYPE svg PUBLIC "-//W3C//DTD SVG 20010904//EN"
 "http://www.w3.org/TR/2001/REC-SVG-20010904/DTD/svg10.dtd">
<svg version="1.0" xmlns="http://www.w3.org/2000/svg"
 width="700.000000pt" height="700.000000pt" viewBox="0 0 700.000000 700.000000"
 preserveAspectRatio="xMidYMid meet">
<metadata>
Created by potrace 1.11, written by Peter Selinger 2001-2013
</metadata>
<g transform="translate(0.000000,700.000000) scale(0.100000,-0.100000)"
fill="#000000" stroke="none">
<path d="M3495 6269 c-1105 -90 -2054 -871 -2380 -1958 -32 -108 -70 -281 -90
-411 -22 -145 -31 -495 -16 -656 148 -1570 1524 -2696 3051 -2498 758 98 1452
532 1892 1183 28 40 46 77 41 81 -21 20 -1119 733 -1129 733 -5 0 -265 -167
-577 -371 l-567 -371 -2 607 -3 607 -682 445 c-375 245 -682 447 -682 450 0 3
138 95 307 205 169 110 393 255 497 324 105 68 269 176 365 239 96 63 180 116
186 119 6 2 76 -38 155 -90 79 -51 335 -219 569 -372 234 -153 430 -278 435
-278 6 0 127 77 270 171 143 94 396 260 563 368 166 109 302 199 302 201 0 2
-27 43 -59 92 -245 364 -634 706 -1028 904 -432 218 -936 315 -1418 276z"/>
</g>
</svg>
