<svg width="30" height="36" viewBox="0 0 30 36" fill="none" xmlns="http://www.w3.org/2000/svg">
<path fill-rule="evenodd" clip-rule="evenodd" d="M1.41146 0H28.5885C29.2941 0 29.8718 0.557437 29.8718 1.23907V34.7609C29.8718 35.4426 29.2941 36 28.5885 36H1.41146C0.705818 36 0.128174 35.4426 0.128174 34.7609V1.23907C0.128174 0.557381 0.705818 0 1.41146 0ZM19.5662 5.30376H21.7025V6.98394H19.5662V5.30376ZM23.339 5.30376H25.4753V6.98394H23.339V5.30376ZM3.15605 13.2151H6.71267C7.01764 13.2151 7.26688 13.4563 7.26688 13.75V16.648C7.26688 16.9416 7.01764 17.1828 6.71267 17.1828H3.15605C2.85109 17.1828 2.60184 16.9416 2.60184 16.648V13.75C2.60184 13.4563 2.85109 13.2151 3.15605 13.2151ZM23.6233 29.6784H27.1792C27.4842 29.6784 27.7334 29.9189 27.7334 30.2133V33.1106C27.7334 33.4049 27.4842 33.6454 27.1792 33.6454H23.6233C23.3183 33.6454 23.0691 33.4049 23.0691 33.1106V30.2133C23.0691 29.9189 23.3183 29.6785 23.6233 29.6785V29.6784ZM16.8013 29.6784H20.3573C20.6615 29.6784 20.9108 29.9189 20.9108 30.2133V33.1106C20.9108 33.4049 20.6615 33.6454 20.3573 33.6454H16.8013C16.4964 33.6454 16.2471 33.4049 16.2471 33.1106V30.2133C16.2471 29.9189 16.4964 29.6785 16.8013 29.6785V29.6784ZM9.97866 29.6784H13.5353C13.8403 29.6784 14.0895 29.9189 14.0895 30.2133V33.1106C14.0895 33.4049 13.8403 33.6454 13.5353 33.6454H9.97861C9.67364 33.6454 9.42439 33.4049 9.42439 33.1106V30.2133C9.42439 29.9189 9.67364 29.6785 9.97861 29.6785L9.97866 29.6784ZM3.156 29.6784H6.71261C7.01758 29.6784 7.26683 29.9189 7.26683 30.2133V33.1106C7.26683 33.4049 7.01758 33.6454 6.71261 33.6454H3.156C2.85103 33.6454 2.60178 33.4049 2.60178 33.1106V30.2133C2.60178 29.9189 2.85103 29.6785 3.156 29.6785V29.6784ZM23.6232 24.19H27.1792C27.4841 24.19 27.7334 24.4312 27.7334 24.7248V27.6228C27.7334 27.9172 27.4841 28.1577 27.1792 28.1577H23.6232C23.3183 28.1577 23.069 27.9172 23.069 27.6229V24.7249C23.069 24.4312 23.3183 24.19 23.6232 24.19ZM16.8013 24.19H20.3572C20.6615 24.19 20.9107 24.4312 20.9107 24.7248V27.6228C20.9107 27.9172 20.6615 28.1577 20.3572 28.1577H16.8013C16.4963 28.1577 16.2471 27.9172 16.2471 27.6229V24.7249C16.2471 24.4312 16.4963 24.19 16.8013 24.19ZM9.97861 24.19H13.5352C13.8402 24.19 14.0894 24.4312 14.0894 24.7248V27.6228C14.0894 27.9172 13.8402 28.1577 13.5352 28.1577H9.97861C9.67364 28.1577 9.42439 27.9172 9.42439 27.6229V24.7249C9.42439 24.4312 9.67364 24.19 9.97861 24.19ZM3.15594 24.19H6.71256C7.01752 24.19 7.26677 24.4312 7.26677 24.7248V27.6228C7.26677 27.9172 7.01752 28.1577 6.71256 28.1577H3.15588C2.85091 28.1577 2.60167 27.9172 2.60167 27.6229V24.7249C2.60167 24.4312 2.85091 24.19 3.15588 24.19H3.15594ZM23.6232 18.7022H27.1791C27.4841 18.7022 27.7333 18.9427 27.7333 19.237V22.1344C27.7333 22.4287 27.4841 22.6693 27.1791 22.6693H23.6232C23.3182 22.6693 23.069 22.4287 23.069 22.1344V19.237C23.069 18.9427 23.3182 18.7022 23.6232 18.7022ZM16.8012 18.7022H20.3571C20.6614 18.7022 20.9106 18.9427 20.9106 19.237V22.1344C20.9106 22.4287 20.6614 22.6693 20.3571 22.6693H16.8012C16.4962 22.6693 16.247 22.4287 16.247 22.1344V19.237C16.247 18.9427 16.4962 18.7022 16.8012 18.7022ZM9.97855 18.7022H13.5352C13.8401 18.7022 14.0894 18.9427 14.0894 19.237V22.1344C14.0894 22.4287 13.8401 22.6693 13.5352 22.6693H9.97855C9.67358 22.6693 9.42434 22.4287 9.42434 22.1344V19.237C9.42434 18.9427 9.67358 18.7022 9.97855 18.7022ZM3.15588 18.7022H6.7125C7.01747 18.7022 7.26671 18.9427 7.26671 19.237V22.1344C7.26671 22.4287 7.01747 22.6693 6.7125 22.6693H3.15588C2.85091 22.6693 2.60167 22.4287 2.60167 22.1344V19.237C2.60167 18.9427 2.85091 18.7022 3.15588 18.7022ZM23.6231 13.2151H27.179C27.484 13.2151 27.7333 13.4563 27.7333 13.75V16.648C27.7333 16.9416 27.484 17.1828 27.179 17.1828H23.6231C23.3182 17.1828 23.0689 16.9417 23.0689 16.648V13.75C23.0689 13.4563 23.3182 13.2151 23.6231 13.2151ZM16.8012 13.2151H20.3571C20.6613 13.2151 20.9106 13.4563 20.9106 13.75V16.648C20.9106 16.9416 20.6613 17.1828 20.3571 17.1828H16.8012C16.4962 17.1828 16.2469 16.9417 16.2469 16.648V13.75C16.2469 13.4563 16.4962 13.2151 16.8012 13.2151ZM9.97849 13.2151H13.5351C13.8401 13.2151 14.0893 13.4563 14.0893 13.75V16.648C14.0893 16.9416 13.8401 17.1828 13.5351 17.1828H9.97849C9.67352 17.1828 9.42428 16.9417 9.42428 16.648V13.75C9.42428 13.4563 9.67352 13.2151 9.97849 13.2151ZM2.86735 2.52861H26.8733C27.106 2.52861 27.2953 2.71198 27.2953 2.93586V8.53656C27.2953 8.76111 27.106 8.94448 26.8733 8.94448H2.86735C2.63466 8.94448 2.44534 8.76111 2.44534 8.53656V2.93586C2.44534 2.71198 2.63466 2.52861 2.86735 2.52861Z" fill="white"/>
</svg>
