<svg width="50" height="40" viewBox="0 0 50 40" fill="none" xmlns="http://www.w3.org/2000/svg">
<path d="M45.3962 7.90909H4.60376V31.2273H45.3962V7.90909Z" stroke="#133E6F" stroke-width="1.7" stroke-linecap="square"/>
<path d="M22.7001 39H27.2999L29.6001 35.5033H36.5001L38.8 39H45.7001L48 31.2273H2L4.29994 39H11.2L13.4999 35.5033H20.3999L22.7001 39Z" stroke="#133E6F" stroke-width="1.7"/>
<path d="M4.29994 7.90909H2V3.59091H4.29994V1H25H45.7001V3.59091H48V7.90909H45.7001H4.29994Z" stroke="#133E6F" stroke-width="1.7"/>
<path fill-rule="evenodd" clip-rule="evenodd" d="M9 5H2V10.5H3.5V7H7V29H43V7H46V10.5H47V5H41V10H9V5ZM8 28H42H25H8Z" fill="#133E6F"/>
</svg>
