<svg width="51" height="30" viewBox="0 0 51 30" fill="none" xmlns="http://www.w3.org/2000/svg">
<rect x="0.85" y="0.85" width="49.3" height="28.3" stroke="white" stroke-width="1.7"/>
<path d="M12.1072 19.096C11.4912 19.096 10.9472 18.964 10.4752 18.7C10.0112 18.436 9.65116 18.064 9.39516 17.584C9.13916 17.096 9.01116 16.536 9.01116 15.904V13.696C9.01116 13.064 9.13916 12.508 9.39516 12.028C9.65916 11.54 10.0272 11.164 10.4992 10.9C10.9792 10.636 11.5312 10.504 12.1552 10.504H13.4272C14.0272 10.504 14.5552 10.632 15.0112 10.888C15.4672 11.144 15.8192 11.504 16.0672 11.968C16.3232 12.424 16.4512 12.956 16.4512 13.564H14.8192C14.8192 13.084 14.6912 12.7 14.4352 12.412C14.1792 12.116 13.8432 11.968 13.4272 11.968H12.1552C11.7072 11.968 11.3472 12.136 11.0752 12.472C10.8032 12.8 10.6672 13.232 10.6672 13.768V15.832C10.6672 16.368 10.7992 16.804 11.0632 17.14C11.3272 17.468 11.6752 17.632 12.1072 17.632H13.4032C13.8272 17.632 14.1712 17.468 14.4352 17.14C14.7072 16.812 14.8432 16.38 14.8432 15.844H16.4752C16.4752 16.492 16.3472 17.064 16.0912 17.56C15.8352 18.048 15.4752 18.428 15.0112 18.7C14.5472 18.964 14.0112 19.096 13.4032 19.096H12.1072ZM20.4769 19.096C19.8449 19.096 19.2849 18.964 18.7969 18.7C18.3169 18.428 17.9409 18.052 17.6689 17.572C17.4049 17.084 17.2729 16.52 17.2729 15.88V13.72C17.2729 13.08 17.4049 12.52 17.6689 12.04C17.9409 11.552 18.3169 11.176 18.7969 10.912C19.2849 10.64 19.8449 10.504 20.4769 10.504H21.7489C22.3809 10.504 22.9369 10.64 23.4169 10.912C23.9049 11.176 24.2809 11.552 24.5449 12.04C24.8169 12.52 24.9529 13.08 24.9529 13.72V15.88C24.9529 16.52 24.8169 17.084 24.5449 17.572C24.2809 18.052 23.9049 18.428 23.4169 18.7C22.9369 18.964 22.3809 19.096 21.7489 19.096H20.4769ZM21.7489 17.632C22.2129 17.632 22.5849 17.464 22.8649 17.128C23.1529 16.792 23.2969 16.352 23.2969 15.808V13.792C23.2969 13.248 23.1529 12.808 22.8649 12.472C22.5849 12.136 22.2129 11.968 21.7489 11.968H20.4769C20.0129 11.968 19.6369 12.136 19.3489 12.472C19.0689 12.808 18.9289 13.248 18.9289 13.792V15.808C18.9289 16.352 19.0689 16.792 19.3489 17.128C19.6369 17.464 20.0129 17.632 20.4769 17.632H21.7489ZM26.1965 10.6H27.6725L30.4205 15.592L33.1085 10.6H34.5845V19H32.9645V13.684L31.2005 16.876C31.0805 17.092 30.9565 17.248 30.8285 17.344C30.7085 17.432 30.5685 17.476 30.4085 17.476H29.9525L27.8165 13.684V19H26.1965V10.6ZM36.0754 10.6H40.5034C40.9914 10.6 41.4234 10.696 41.7994 10.888C42.1754 11.072 42.4674 11.34 42.6754 11.692C42.8834 12.036 42.9874 12.432 42.9874 12.88V13.996C42.9874 14.46 42.8794 14.872 42.6634 15.232C42.4474 15.584 42.1434 15.86 41.7514 16.06C41.3674 16.252 40.9194 16.348 40.4074 16.348H37.7314V19H36.0754V10.6ZM40.3834 14.908C40.6634 14.908 40.8914 14.82 41.0674 14.644C41.2434 14.46 41.3314 14.22 41.3314 13.924V12.952C41.3314 12.672 41.2514 12.452 41.0914 12.292C40.9394 12.124 40.7354 12.04 40.4794 12.04H37.7314V14.908H40.3834Z" fill="white"/>
</svg>
