<svg width="50" height="40" viewBox="0 0 50 40" fill="none" xmlns="http://www.w3.org/2000/svg">
<path fill-rule="evenodd" clip-rule="evenodd" d="M5 8H45V31H5L5 8ZM6.62162 9.5V13H14.1892V9.5H6.62162ZM16.3514 9.5V13H23.9189V9.5H16.3514ZM26.0811 9.5V13H33.6486V9.5H26.0811ZM35.8108 9.5V13H43.3784V9.5H35.8108ZM43.3784 15H35.8108V18.5H43.3784V15ZM43.3784 20.5H35.8108V24H43.3784V20.5ZM43.3784 26H35.8108V29.5H43.3784V26ZM33.6486 29.5V26H26.0811V29.5H33.6486ZM23.9189 29.5V26H16.3514V29.5H23.9189ZM14.1892 29.5V26H6.62162V29.5H14.1892ZM6.62162 24H14.1892V20.5H6.62162V24ZM6.62162 18.5H14.1892V15H6.62162V18.5ZM16.3514 15V18.5H23.9189V15H16.3514ZM26.0811 15V18.5H33.6486V15H26.0811ZM33.6486 20.5H26.0811V24H33.6486V20.5ZM23.9189 24V20.5H16.3514V24H23.9189Z" fill="#133E6F"/>
<path d="M45.3962 7.90908H4.60376V31.2273H45.3962V7.90908Z" stroke="#133E6F" stroke-width="1.7" stroke-linecap="square"/>
<path d="M22.7001 39H27.2999L29.6001 35.5033H36.5001L38.8 39H45.7001L48 31.2273H2L4.29994 39H11.2L13.4999 35.5033H20.3999L22.7001 39Z" stroke="#133E6F" stroke-width="1.7"/>
<path d="M4.29994 7.90909H2V3.59091H4.29994V1H25H45.7001V3.59091H48V7.90909H45.7001H4.29994Z" stroke="#133E6F" stroke-width="1.7"/>
</svg>
