<svg width="50" height="40" viewBox="0 0 50 40" fill="none" xmlns="http://www.w3.org/2000/svg">
<path fill-rule="evenodd" clip-rule="evenodd" d="M6.7 9V10.0273L43 10.0273V9H44.7V13H43V11.7273H40.0469V18.5H9.65306V11.7273H6.7V13H5L5 9H6.7Z" fill="#133E6F"/>
<path fill-rule="evenodd" clip-rule="evenodd" d="M6.7 19V20.0273L43 20.0273V19H44.7V23H43V21.7273H40.0469V28.5H9.65306V21.7273H6.7V23H5L5 19H6.7Z" fill="#133E6F"/>
<path d="M45.3962 7.90909H4.60376V31.2273H45.3962V7.90909Z" stroke="#133E6F" stroke-width="1.7" stroke-linecap="square"/>
<path d="M22.7001 39H27.2999L29.6001 35.5033H36.5001L38.8 39H45.7001L48 31.2273H2L4.29994 39H11.2L13.4999 35.5033H20.3999L22.7001 39Z" stroke="#133E6F" stroke-width="1.7"/>
<path d="M4.29994 7.90909H2V3.59091H4.29994V1H25H45.7001V3.59091H48V7.90909H45.7001H4.29994Z" stroke="#133E6F" stroke-width="1.7"/>
</svg>
