<svg width="30" height="35" viewBox="0 0 30 35" fill="none" xmlns="http://www.w3.org/2000/svg">
<path d="M19.8339 3.69308C19.7397 3.69308 19.6589 3.68012 19.5781 3.6542C19.1607 3.6542 18.8106 3.33025 18.8106 2.91559V1.46427H11.3779V2.91559C11.3779 3.29137 11.0682 3.61533 10.6912 3.64124C10.6104 3.66716 10.5162 3.68012 10.4219 3.68012H7.62118V6.68641H22.2846V3.68012H19.807L19.8339 3.69308ZM20.8842 34.8056C20.7495 34.9222 20.561 35 20.3725 35C20.3321 35 20.2917 35 20.2513 34.987H1.69659C1.23878 34.987 0.807899 34.8056 0.498205 34.5076C0.18851 34.2095 0 33.8078 0 33.3543V5.76638C0 5.31285 0.18851 4.91114 0.498205 4.61311C0.807899 4.31507 1.22531 4.13365 1.69659 4.13365H6.11311V3.33025C6.11311 3.03221 6.23429 2.76009 6.44973 2.55276C6.65171 2.35839 6.93447 2.2288 7.25763 2.2288H9.86984V1.21807C9.86984 0.881155 10.018 0.583117 10.2469 0.362829C10.4758 0.14254 10.7855 0 11.1355 0H19.0934C19.4434 0 19.7531 0.14254 19.982 0.362829C20.211 0.583117 20.3591 0.881155 20.3591 1.21807V2.2288H22.7154C23.0251 2.2288 23.3079 2.35839 23.5233 2.55276C23.7253 2.74713 23.86 3.03221 23.86 3.33025V4.13365H28.2765C28.7478 4.13365 29.1652 4.31507 29.4749 4.61311C29.7846 4.91114 29.9731 5.31285 29.9731 5.76638V25.4757C29.9865 25.5405 30 25.5924 30 25.6572C30 25.8775 29.8923 26.0718 29.7442 26.2144L20.9785 34.7538C20.9515 34.7797 20.9381 34.7927 20.9111 34.8056H20.8842ZM19.605 33.5228V27.1344C19.605 26.5254 19.8609 25.9682 20.2783 25.5665C20.6957 25.1648 21.2747 24.9185 21.9075 24.9185H28.4246V5.76638C28.4246 5.72751 28.4111 5.67568 28.3707 5.64976C28.3438 5.62384 28.3034 5.59793 28.2495 5.59793H23.833V7.07516C23.833 7.37319 23.7118 7.64532 23.4964 7.85265C23.2944 8.04702 23.0117 8.1766 22.6885 8.1766H7.24416C6.93447 8.1766 6.63824 8.04702 6.43627 7.85265C6.40934 7.82673 6.39587 7.80081 6.36894 7.7749C6.20736 7.58053 6.09964 7.33432 6.09964 7.07516V5.59793H1.68312C1.64273 5.59793 1.58887 5.61088 1.56194 5.64976C1.53501 5.67568 1.50808 5.72751 1.50808 5.76638V33.3543C1.50808 33.4061 1.52154 33.445 1.56194 33.4709C1.58887 33.4969 1.62926 33.5228 1.68312 33.5228H19.5916H19.605ZM21.1266 27.1344V32.4861L27.3878 26.3828H21.9075C21.6921 26.3828 21.5036 26.4735 21.3555 26.6031C21.2208 26.7327 21.1266 26.9271 21.1266 27.1344ZM6.28815 24.1022C5.87074 24.1022 5.52065 23.7782 5.52065 23.3636C5.52065 22.9619 5.85727 22.625 6.28815 22.625H19.7262C20.1436 22.625 20.4937 22.9489 20.4937 23.3636C20.4937 23.7653 20.1571 24.1022 19.7262 24.1022H6.28815ZM6.28815 14.254C5.87074 14.254 5.52065 13.93 5.52065 13.5154C5.52065 13.1137 5.85727 12.7767 6.28815 12.7767H23.658C24.0754 12.7767 24.4255 13.1007 24.4255 13.5154C24.4255 13.9171 24.0889 14.254 23.658 14.254H6.28815ZM6.28815 19.1781C5.87074 19.1781 5.52065 18.8541 5.52065 18.4395C5.52065 18.0378 5.85727 17.7009 6.28815 17.7009H23.658C24.0754 17.7009 24.4255 18.0248 24.4255 18.4395C24.4255 18.8412 24.0889 19.1781 23.658 19.1781H6.28815Z" fill="white"/>
</svg>
