<svg width="125" height="67" viewBox="0 0 125 67" fill="none" xmlns="http://www.w3.org/2000/svg">
<path d="M65.78 16.1008C65.1332 16.1008 64.562 15.9622 64.0664 15.685C63.5792 15.4078 63.2012 15.0172 62.9324 14.5132C62.6636 14.0008 62.5292 13.4128 62.5292 12.7492V10.4308C62.5292 9.7672 62.6636 9.1834 62.9324 8.6794C63.2096 8.167 63.596 7.7722 64.0916 7.495C64.5956 7.2178 65.1752 7.0792 65.8304 7.0792H67.166C67.796 7.0792 68.3504 7.2136 68.8292 7.4824C69.308 7.7512 69.6776 8.1292 69.938 8.6164C70.2068 9.0952 70.3412 9.6538 70.3412 10.2922H68.6276C68.6276 9.7882 68.4932 9.385 68.2244 9.0826C67.9556 8.7718 67.6028 8.6164 67.166 8.6164H65.8304C65.36 8.6164 64.982 8.7928 64.6964 9.1456C64.4108 9.49 64.268 9.9436 64.268 10.5064V12.6736C64.268 13.2364 64.4066 13.6942 64.6838 14.047C64.961 14.3914 65.3264 14.5636 65.78 14.5636H67.1408C67.586 14.5636 67.9472 14.3914 68.2244 14.047C68.51 13.7026 68.6528 13.249 68.6528 12.6862H70.3664C70.3664 13.3666 70.232 13.9672 69.9632 14.488C69.6944 15.0004 69.3164 15.3994 68.8292 15.685C68.342 15.9622 67.7792 16.1008 67.1408 16.1008H65.78ZM73.8374 16.1008C73.3082 16.1008 72.8378 16 72.4262 15.7984C72.023 15.5884 71.708 15.2944 71.4812 14.9164C71.2628 14.5384 71.1536 14.1016 71.1536 13.606V12.1318C71.1536 11.6362 71.267 11.1994 71.4938 10.8214C71.7206 10.435 72.0356 10.1368 72.4388 9.9268C72.8504 9.7168 73.3208 9.6118 73.85 9.6118H74.984C75.5132 9.6118 75.9794 9.7168 76.3826 9.9268C76.7942 10.1368 77.1134 10.435 77.3402 10.8214C77.567 11.1994 77.6804 11.6362 77.6804 12.1318V13.606C77.6804 14.1016 77.567 14.5384 77.3402 14.9164C77.1134 15.2944 76.7942 15.5884 76.3826 15.7984C75.9794 16 75.509 16.1008 74.9714 16.1008H73.8374ZM74.9462 14.6266C75.257 14.6266 75.5048 14.5216 75.6896 14.3116C75.8744 14.0932 75.9668 13.8118 75.9668 13.4674V12.2452C75.9668 11.9008 75.8744 11.6236 75.6896 11.4136C75.5048 11.1952 75.2612 11.086 74.9588 11.086H73.8752C73.5728 11.086 73.3292 11.1952 73.1444 11.4136C72.9596 11.6236 72.8672 11.9008 72.8672 12.2452V13.4674C72.8672 13.8118 72.9596 14.0932 73.1444 14.3116C73.3292 14.5216 73.5686 14.6266 73.8626 14.6266H74.9462ZM78.8869 9.7126H80.4745V10.4686C80.6593 10.2082 80.8987 10.0024 81.1927 9.8512C81.4867 9.6916 81.7807 9.6118 82.0747 9.6118H82.8307C83.5027 9.6118 84.0403 9.8218 84.4435 10.2418C84.8551 10.6618 85.0609 11.2162 85.0609 11.905V16H83.3473V11.968C83.3473 11.7076 83.2759 11.4976 83.1331 11.338C82.9987 11.1784 82.8223 11.0986 82.6039 11.0986H81.8479C81.5539 11.0986 81.2893 11.2078 81.0541 11.4262C80.8273 11.6362 80.6761 11.9134 80.6005 12.2578V16H78.8869V9.7126ZM87.1953 8.692H84.3981V7.18H91.7313V8.692H88.9341V16H87.1953V8.692ZM93.599 16.1008C93.0698 16.1008 92.5994 16.0042 92.1878 15.811C91.7846 15.6094 91.4696 15.3322 91.2428 14.9794C91.016 14.6182 90.9026 14.2066 90.9026 13.7446V12.1192C90.9026 11.6236 91.016 11.1868 91.2428 10.8088C91.4696 10.4308 91.7846 10.1368 92.1878 9.9268C92.5994 9.7168 93.0698 9.6118 93.599 9.6118H94.607C95.4134 9.6118 96.0602 9.8386 96.5474 10.2922C97.0346 10.7458 97.2782 11.3506 97.2782 12.1066V13.4422H92.6162V13.7446C92.6162 14.0218 92.7044 14.2444 92.8808 14.4124C93.0572 14.5804 93.2966 14.6644 93.599 14.6644H94.5818C94.8758 14.6644 95.111 14.6014 95.2874 14.4754C95.4722 14.341 95.5646 14.1688 95.5646 13.9588H97.253C97.253 14.3788 97.1396 14.7526 96.9128 15.0802C96.686 15.4078 96.3668 15.6598 95.9552 15.8362C95.552 16.0126 95.0858 16.1008 94.5566 16.1008H93.599ZM95.5898 12.2074V12.1066C95.5898 11.779 95.5016 11.5186 95.3252 11.3254C95.1488 11.1238 94.9136 11.023 94.6196 11.023H93.599C93.2966 11.023 93.053 11.128 92.8682 11.338C92.6834 11.548 92.591 11.8252 92.591 12.1696V12.2074H95.5898ZM100.883 18.5578C100.203 18.5578 99.6402 18.3646 99.195 17.9782C98.7582 17.6002 98.5146 17.1004 98.4642 16.4788H100.153C100.169 16.6636 100.245 16.8106 100.379 16.9198C100.514 17.0374 100.682 17.0962 100.883 17.0962H101.917C102.177 17.0962 102.387 16.987 102.547 16.7686C102.715 16.5586 102.799 16.2814 102.799 15.937V15.118C102.605 15.3784 102.383 15.5842 102.131 15.7354C101.887 15.8782 101.644 15.9496 101.4 15.9496H100.568C99.9048 15.9496 99.3714 15.7312 98.9682 15.2944C98.565 14.8492 98.3634 14.2612 98.3634 13.5304V9.7126H100.077V13.5556C100.077 13.8328 100.144 14.0596 100.279 14.236C100.421 14.404 100.606 14.488 100.833 14.488H101.564C101.841 14.488 102.093 14.3746 102.32 14.1478C102.547 13.9126 102.706 13.606 102.799 13.228V9.7126H104.512V15.937C104.512 16.4578 104.403 16.9156 104.185 17.3104C103.975 17.7052 103.672 18.0118 103.277 18.2302C102.883 18.4486 102.429 18.5578 101.917 18.5578H100.883ZM108.401 16.1008C107.872 16.1008 107.402 16 106.99 15.7984C106.587 15.5884 106.272 15.2944 106.045 14.9164C105.827 14.5384 105.717 14.1016 105.717 13.606V12.1318C105.717 11.6362 105.831 11.1994 106.058 10.8214C106.284 10.435 106.599 10.1368 107.003 9.9268C107.414 9.7168 107.885 9.6118 108.414 9.6118H109.548C110.077 9.6118 110.543 9.7168 110.946 9.9268C111.358 10.1368 111.677 10.435 111.904 10.8214C112.131 11.1994 112.244 11.6362 112.244 12.1318V13.606C112.244 14.1016 112.131 14.5384 111.904 14.9164C111.677 15.2944 111.358 15.5884 110.946 15.7984C110.543 16 110.073 16.1008 109.535 16.1008H108.401ZM109.51 14.6266C109.821 14.6266 110.069 14.5216 110.253 14.3116C110.438 14.0932 110.531 13.8118 110.531 13.4674V12.2452C110.531 11.9008 110.438 11.6236 110.253 11.4136C110.069 11.1952 109.825 11.086 109.523 11.086H108.439C108.137 11.086 107.893 11.1952 107.708 11.4136C107.523 11.6236 107.431 11.9008 107.431 12.2452V13.4674C107.431 13.8118 107.523 14.0932 107.708 14.3116C107.893 14.5216 108.132 14.6266 108.426 14.6266H109.51ZM113.451 9.7126H115.038V10.519C115.198 10.2754 115.425 10.078 115.719 9.9268C116.021 9.7672 116.336 9.6874 116.664 9.6874H117.521V11.1742H116.664C116.219 11.1742 115.857 11.3086 115.58 11.5774C115.303 11.8462 115.164 12.1906 115.164 12.6106V16H113.451V9.7126ZM64.0034 30C63.6422 30 63.3482 29.8908 63.1214 29.6724C62.8946 29.454 62.7812 29.1684 62.7812 28.8156V21.18H69.5096V22.692H64.52V24.7332H69.1316V26.2452H64.52V28.488H69.5096V30H64.0034ZM73.0745 30.1008C72.5453 30.1008 72.0749 29.9958 71.6633 29.7858C71.2601 29.5758 70.9451 29.2818 70.7183 28.9038C70.4999 28.5258 70.3907 28.089 70.3907 27.5934V26.1192C70.3907 25.6236 70.4999 25.1868 70.7183 24.8088C70.9451 24.4308 71.2601 24.1368 71.6633 23.9268C72.0665 23.7168 72.5327 23.6118 73.0619 23.6118H74.0573C74.5613 23.6118 75.0065 23.7126 75.3929 23.9142C75.7793 24.1158 76.0775 24.4014 76.2875 24.771C76.4975 25.1322 76.6025 25.5522 76.6025 26.031H74.9015C74.9015 25.7454 74.8217 25.5186 74.6621 25.3506C74.5109 25.1742 74.3093 25.086 74.0573 25.086H73.0871C72.7931 25.086 72.5537 25.1952 72.3689 25.4136C72.1925 25.6236 72.1043 25.9008 72.1043 26.2452V27.4674C72.1043 27.8118 72.1967 28.0932 72.3815 28.3116C72.5663 28.5216 72.8057 28.6266 73.0997 28.6266H74.0699C74.3387 28.6266 74.5529 28.53 74.7125 28.3368C74.8805 28.1436 74.9645 27.8874 74.9645 27.5682H76.6655C76.6655 28.3326 76.4261 28.9458 75.9473 29.4078C75.4769 29.8698 74.8511 30.1008 74.0699 30.1008H73.0745ZM80.1251 30.1008C79.5959 30.1008 79.1255 30 78.7139 29.7984C78.3107 29.5884 77.9957 29.2944 77.7689 28.9164C77.5505 28.5384 77.4413 28.1016 77.4413 27.606V26.1318C77.4413 25.6362 77.5547 25.1994 77.7815 24.8214C78.0083 24.435 78.3233 24.1368 78.7265 23.9268C79.1381 23.7168 79.6085 23.6118 80.1377 23.6118H81.2717C81.8009 23.6118 82.2671 23.7168 82.6703 23.9268C83.0819 24.1368 83.4011 24.435 83.6279 24.8214C83.8547 25.1994 83.9681 25.6362 83.9681 26.1318V27.606C83.9681 28.1016 83.8547 28.5384 83.6279 28.9164C83.4011 29.2944 83.0819 29.5884 82.6703 29.7984C82.2671 30 81.7967 30.1008 81.2591 30.1008H80.1251ZM81.2339 28.6266C81.5447 28.6266 81.7925 28.5216 81.9773 28.3116C82.1621 28.0932 82.2545 27.8118 82.2545 27.4674V26.2452C82.2545 25.9008 82.1621 25.6236 81.9773 25.4136C81.7925 25.1952 81.5489 25.086 81.2465 25.086H80.1629C79.8605 25.086 79.6169 25.1952 79.4321 25.4136C79.2473 25.6236 79.1549 25.9008 79.1549 26.2452V27.4674C79.1549 27.8118 79.2473 28.0932 79.4321 28.3116C79.6169 28.5216 79.8563 28.6266 80.1503 28.6266H81.2339ZM85.1745 23.7126H86.7621V24.393C86.9385 24.1578 87.1611 23.9688 87.4299 23.826C87.7071 23.6832 87.9759 23.6118 88.2363 23.6118H89.0301C89.5341 23.6118 89.9793 23.7168 90.3657 23.9268C90.7521 24.1284 91.0503 24.414 91.2603 24.7836C91.4703 25.1532 91.5753 25.5774 91.5753 26.0562V27.4674C91.5753 27.9882 91.4703 28.4502 91.2603 28.8534C91.0503 29.2482 90.7563 29.5548 90.3783 29.7732C90.0003 29.9916 89.5635 30.1008 89.0679 30.1008H88.2489C88.0137 30.1008 87.7701 30.0462 87.5181 29.937C87.2745 29.8278 87.0645 29.6808 86.8881 29.496V32.52H85.1745V23.7126ZM88.8411 28.6266C89.1519 28.6266 89.3997 28.509 89.5845 28.2738C89.7693 28.0386 89.8617 27.7278 89.8617 27.3414V26.1822C89.8617 25.8546 89.7651 25.59 89.5719 25.3884C89.3871 25.1868 89.1393 25.086 88.8285 25.086H88.0599C87.8163 25.086 87.5853 25.1868 87.3669 25.3884C87.1485 25.5816 86.9889 25.8336 86.8881 26.1444V27.3918C86.9301 27.7614 87.0561 28.0596 87.2661 28.2864C87.4845 28.5132 87.7491 28.6266 88.0599 28.6266H88.8411ZM94.7696 30.1008C94.1144 30.1008 93.5852 29.937 93.182 29.6094C92.7788 29.2818 92.5772 28.8492 92.5772 28.3116V27.8454C92.5772 27.3162 92.7872 26.892 93.2072 26.5728C93.6272 26.2452 94.1816 26.0814 94.8704 26.0814H95.639C95.8574 26.0814 96.0926 26.1108 96.3446 26.1696C96.5966 26.2284 96.8276 26.3082 97.0376 26.409V25.7538C97.0376 25.5438 96.9662 25.3758 96.8234 25.2498C96.689 25.1154 96.5084 25.0482 96.2816 25.0482H95.198C94.9628 25.0482 94.7738 25.1028 94.631 25.212C94.4882 25.3212 94.4168 25.4682 94.4168 25.653H92.7536C92.7536 25.0398 92.9762 24.5484 93.4214 24.1788C93.875 23.8008 94.4672 23.6118 95.198 23.6118H96.2816C97.0208 23.6118 97.6172 23.8092 98.0708 24.204C98.5244 24.5904 98.7512 25.107 98.7512 25.7538V30H97.1636V29.244C96.962 29.5044 96.7142 29.7144 96.4202 29.874C96.1262 30.0252 95.8364 30.1008 95.5508 30.1008H94.7696ZM95.6768 28.7904C95.9876 28.7904 96.2648 28.7106 96.5084 28.551C96.752 28.3914 96.9284 28.1772 97.0376 27.9084V27.6942C96.9032 27.5934 96.7142 27.5136 96.4706 27.4548C96.2354 27.396 95.9834 27.3666 95.7146 27.3666H94.9208C94.7192 27.3666 94.5554 27.417 94.4294 27.5178C94.3034 27.6186 94.2404 27.753 94.2404 27.921V28.2486C94.2404 28.4082 94.3076 28.5384 94.442 28.6392C94.5848 28.74 94.7696 28.7904 94.9964 28.7904H95.6768ZM102.569 30.1008C102.04 30.1008 101.569 29.9958 101.158 29.7858C100.754 29.5758 100.439 29.2818 100.213 28.9038C99.9943 28.5258 99.8851 28.089 99.8851 27.5934V26.1192C99.8851 25.6236 99.9943 25.1868 100.213 24.8088C100.439 24.4308 100.754 24.1368 101.158 23.9268C101.561 23.7168 102.027 23.6118 102.556 23.6118H103.552C104.056 23.6118 104.501 23.7126 104.887 23.9142C105.274 24.1158 105.572 24.4014 105.782 24.771C105.992 25.1322 106.097 25.5522 106.097 26.031H104.396C104.396 25.7454 104.316 25.5186 104.156 25.3506C104.005 25.1742 103.804 25.086 103.552 25.086H102.581C102.287 25.086 102.048 25.1952 101.863 25.4136C101.687 25.6236 101.599 25.9008 101.599 26.2452V27.4674C101.599 27.8118 101.691 28.0932 101.876 28.3116C102.061 28.5216 102.3 28.6266 102.594 28.6266H103.564C103.833 28.6266 104.047 28.53 104.207 28.3368C104.375 28.1436 104.459 27.8874 104.459 27.5682H106.16C106.16 28.3326 105.92 28.9458 105.442 29.4078C104.971 29.8698 104.345 30.1008 103.564 30.1008H102.569ZM111.535 30L109.569 27.48L108.901 28.1478V30H107.188V21.18H108.901V26.22L111.383 23.7126H113.374L110.678 26.3838L113.475 30H111.535ZM64.0034 44C63.6422 44 63.3482 43.8908 63.1214 43.6724C62.8946 43.454 62.7812 43.1684 62.7812 42.8156V35.18H66.9896C67.6616 35.18 68.2496 35.306 68.7536 35.558C69.266 35.81 69.6608 36.167 69.938 36.629C70.2236 37.091 70.3664 37.6244 70.3664 38.2292V40.6988C70.3664 41.7824 70.085 42.6056 69.5222 43.1684C68.9594 43.7228 68.132 44 67.04 44H64.0034ZM66.9896 42.4628C67.5272 42.4628 67.9346 42.3074 68.2118 41.9966C68.489 41.6858 68.6276 41.228 68.6276 40.6232V38.3048C68.6276 37.826 68.4722 37.4438 68.1614 37.1582C67.8506 36.8642 67.4432 36.7172 66.9392 36.7172H64.52V42.4628H66.9896ZM74.0223 44.1008C73.4931 44.1008 73.0227 44.0042 72.6111 43.811C72.2079 43.6094 71.8929 43.3322 71.6661 42.9794C71.4393 42.6182 71.3259 42.2066 71.3259 41.7446V40.1192C71.3259 39.6236 71.4393 39.1868 71.6661 38.8088C71.8929 38.4308 72.2079 38.1368 72.6111 37.9268C73.0227 37.7168 73.4931 37.6118 74.0223 37.6118H75.0303C75.8367 37.6118 76.4835 37.8386 76.9707 38.2922C77.4579 38.7458 77.7015 39.3506 77.7015 40.1066V41.4422H73.0395V41.7446C73.0395 42.0218 73.1277 42.2444 73.3041 42.4124C73.4805 42.5804 73.7199 42.6644 74.0223 42.6644H75.0051C75.2991 42.6644 75.5343 42.6014 75.7107 42.4754C75.8955 42.341 75.9879 42.1688 75.9879 41.9588H77.6763C77.6763 42.3788 77.5629 42.7526 77.3361 43.0802C77.1093 43.4078 76.7901 43.6598 76.3785 43.8362C75.9753 44.0126 75.5091 44.1008 74.9799 44.1008H74.0223ZM76.0131 40.2074V40.1066C76.0131 39.779 75.9249 39.5186 75.7485 39.3254C75.5721 39.1238 75.3369 39.023 75.0429 39.023H74.0223C73.7199 39.023 73.4763 39.128 73.2915 39.338C73.1067 39.548 73.0143 39.8252 73.0143 40.1696V40.2074H76.0131ZM78.8622 37.7126H80.4498V38.4686C80.6346 38.2082 80.874 38.0024 81.168 37.8512C81.462 37.6916 81.756 37.6118 82.05 37.6118H82.806C83.478 37.6118 84.0156 37.8218 84.4188 38.2418C84.8304 38.6618 85.0362 39.2162 85.0362 39.905V44H83.3226V39.968C83.3226 39.7076 83.2512 39.4976 83.1084 39.338C82.974 39.1784 82.7976 39.0986 82.5792 39.0986H81.8232C81.5292 39.0986 81.2646 39.2078 81.0294 39.4262C80.8026 39.6362 80.6514 39.9134 80.5758 40.2578V44H78.8622V37.7126ZM88.6475 44.1008C87.8831 44.1008 87.2699 43.8992 86.8079 43.496C86.3459 43.0928 86.1149 42.5636 86.1149 41.9084H87.8033C87.8033 42.1352 87.8789 42.32 88.0301 42.4628C88.1897 42.5972 88.3955 42.6644 88.6475 42.6644H89.7815C90.2855 42.6644 90.5375 42.5258 90.5375 42.2486V42.0344C90.5375 41.9504 90.4955 41.8748 90.4115 41.8076C90.3275 41.732 90.2141 41.6816 90.0713 41.6564L87.8915 41.2784C87.3791 41.1944 86.9717 41.0138 86.6693 40.7366C86.3753 40.451 86.2283 40.1192 86.2283 39.7412V39.3254C86.2283 38.7878 86.4467 38.3678 86.8835 38.0654C87.3287 37.763 87.9461 37.6118 88.7357 37.6118H89.7185C90.4241 37.6118 90.9911 37.8008 91.4195 38.1788C91.8563 38.5484 92.0747 39.0398 92.0747 39.653H90.3863C90.3863 39.4682 90.3233 39.3212 90.1973 39.212C90.0797 39.1028 89.9201 39.0482 89.7185 39.0482H88.7609C88.2149 39.0482 87.9419 39.1742 87.9419 39.4262V39.6278C87.9419 39.7202 87.9755 39.8 88.0427 39.8672C88.1183 39.926 88.2233 39.968 88.3577 39.9932L90.6509 40.409C91.1297 40.493 91.5161 40.6736 91.8101 40.9508C92.1041 41.2196 92.2511 41.5262 92.2511 41.8706V42.3242C92.2511 42.8702 92.0243 43.3028 91.5707 43.622C91.1255 43.9412 90.5291 44.1008 89.7815 44.1008H88.6475ZM94.4162 37.1204C94.0886 37.1204 93.824 37.028 93.6224 36.8432C93.4292 36.65 93.3326 36.398 93.3326 36.0872C93.3326 35.7764 93.4292 35.5286 93.6224 35.3438C93.824 35.1506 94.0886 35.054 94.4162 35.054C94.7438 35.054 95.0042 35.1506 95.1974 35.3438C95.399 35.5286 95.4998 35.7764 95.4998 36.0872C95.4998 36.398 95.399 36.65 95.1974 36.8432C95.0042 37.028 94.7438 37.1204 94.4162 37.1204ZM93.5594 37.7126H95.273V44H93.5594V37.7126ZM99.7092 44C98.97 44 98.4282 43.832 98.0838 43.496C97.7394 43.16 97.5672 42.6392 97.5672 41.9336V39.1742H96.4584V37.7126H97.6176V35.81H99.2808V37.7126H100.919V39.1742H99.2808V41.858C99.2808 42.0932 99.3228 42.2654 99.4068 42.3746C99.4992 42.4838 99.642 42.5384 99.8352 42.5384H100.919V44H99.7092ZM104.501 46.5578C103.821 46.5578 103.258 46.3646 102.813 45.9782C102.376 45.6002 102.132 45.1004 102.082 44.4788H103.77C103.787 44.6636 103.863 44.8106 103.997 44.9198C104.131 45.0374 104.299 45.0962 104.501 45.0962H105.534C105.795 45.0962 106.005 44.987 106.164 44.7686C106.332 44.5586 106.416 44.2814 106.416 43.937V43.118C106.223 43.3784 106 43.5842 105.748 43.7354C105.505 43.8782 105.261 43.9496 105.018 43.9496H104.186C103.522 43.9496 102.989 43.7312 102.586 43.2944C102.183 42.8492 101.981 42.2612 101.981 41.5304V37.7126H103.695V41.5556C103.695 41.8328 103.762 42.0596 103.896 42.236C104.039 42.404 104.224 42.488 104.451 42.488H105.181C105.459 42.488 105.711 42.3746 105.937 42.1478C106.164 41.9126 106.324 41.606 106.416 41.228V37.7126H108.13V43.937C108.13 44.4578 108.021 44.9156 107.802 45.3104C107.592 45.7052 107.29 46.0118 106.895 46.2302C106.5 46.4486 106.047 46.5578 105.534 46.5578H104.501ZM67.9472 55.9462H64.646L63.8648 58H62.0504L65.5028 49.18H66.284C66.83 49.18 67.1996 49.432 67.3928 49.936L70.5302 58H68.7158L67.9472 55.9462ZM65.1122 54.4846H67.481L66.3092 51.3094H66.2966L65.1122 54.4846ZM71.3072 51.7126H72.8948V52.4686C73.0796 52.2082 73.319 52.0024 73.613 51.8512C73.907 51.6916 74.201 51.6118 74.495 51.6118H75.251C75.923 51.6118 76.4606 51.8218 76.8638 52.2418C77.2754 52.6618 77.4812 53.2162 77.4812 53.905V58H75.7676V53.968C75.7676 53.7076 75.6962 53.4976 75.5534 53.338C75.419 53.1784 75.2426 53.0986 75.0242 53.0986H74.2682C73.9742 53.0986 73.7096 53.2078 73.4744 53.4262C73.2476 53.6362 73.0964 53.9134 73.0208 54.2578V58H71.3072V51.7126ZM80.853 58.1008C80.1978 58.1008 79.6686 57.937 79.2654 57.6094C78.8622 57.2818 78.6606 56.8492 78.6606 56.3116V55.8454C78.6606 55.3162 78.8706 54.892 79.2906 54.5728C79.7106 54.2452 80.265 54.0814 80.9538 54.0814H81.7224C81.9408 54.0814 82.176 54.1108 82.428 54.1696C82.68 54.2284 82.911 54.3082 83.121 54.409V53.7538C83.121 53.5438 83.0496 53.3758 82.9068 53.2498C82.7724 53.1154 82.5918 53.0482 82.365 53.0482H81.2814C81.0462 53.0482 80.8572 53.1028 80.7144 53.212C80.5716 53.3212 80.5002 53.4682 80.5002 53.653H78.837C78.837 53.0398 79.0596 52.5484 79.5048 52.1788C79.9584 51.8008 80.5506 51.6118 81.2814 51.6118H82.365C83.1042 51.6118 83.7006 51.8092 84.1542 52.204C84.6078 52.5904 84.8346 53.107 84.8346 53.7538V58H83.247V57.244C83.0454 57.5044 82.7976 57.7144 82.5036 57.874C82.2096 58.0252 81.9198 58.1008 81.6342 58.1008H80.853ZM81.7602 56.7904C82.071 56.7904 82.3482 56.7106 82.5918 56.551C82.8354 56.3914 83.0118 56.1772 83.121 55.9084V55.6942C82.9866 55.5934 82.7976 55.5136 82.554 55.4548C82.3188 55.396 82.0668 55.3666 81.798 55.3666H81.0042C80.8026 55.3666 80.6388 55.417 80.5128 55.5178C80.3868 55.6186 80.3238 55.753 80.3238 55.921V56.2486C80.3238 56.4082 80.391 56.5384 80.5254 56.6392C80.6682 56.74 80.853 56.7904 81.0798 56.7904H81.7602ZM88.3876 58C87.64 58 87.0898 57.8446 86.737 57.5338C86.3926 57.2146 86.2204 56.7232 86.2204 56.0596V49.18H87.934V55.9588C87.934 56.1604 87.9802 56.3074 88.0726 56.3998C88.165 56.4922 88.312 56.5384 88.5136 56.5384H89.194V58H88.3876ZM92.3932 60.5578C91.7128 60.5578 91.15 60.3646 90.7048 59.9782C90.268 59.6002 90.0244 59.1004 89.974 58.4788H91.6624C91.6792 58.6636 91.7548 58.8106 91.8892 58.9198C92.0236 59.0374 92.1916 59.0962 92.3932 59.0962H93.4264C93.6868 59.0962 93.8968 58.987 94.0564 58.7686C94.2244 58.5586 94.3084 58.2814 94.3084 57.937V57.118C94.1152 57.3784 93.8926 57.5842 93.6406 57.7354C93.397 57.8782 93.1534 57.9496 92.9098 57.9496H92.0782C91.4146 57.9496 90.8812 57.7312 90.478 57.2944C90.0748 56.8492 89.8732 56.2612 89.8732 55.5304V51.7126H91.5868V55.5556C91.5868 55.8328 91.654 56.0596 91.7884 56.236C91.9312 56.404 92.116 56.488 92.3428 56.488H93.0736C93.3508 56.488 93.6028 56.3746 93.8296 56.1478C94.0564 55.9126 94.216 55.606 94.3084 55.228V51.7126H96.022V57.937C96.022 58.4578 95.9128 58.9156 95.6944 59.3104C95.4844 59.7052 95.182 60.0118 94.7872 60.2302C94.3924 60.4486 93.9388 60.5578 93.4264 60.5578H92.3932ZM96.9752 57.1432L100.377 53.1616H97.1264V51.7126H102.822V52.5694L99.4196 56.551H102.759V58H96.9752V57.1432ZM106.002 58.1008C105.473 58.1008 105.003 58.0042 104.591 57.811C104.188 57.6094 103.873 57.3322 103.646 56.9794C103.419 56.6182 103.306 56.2066 103.306 55.7446V54.1192C103.306 53.6236 103.419 53.1868 103.646 52.8088C103.873 52.4308 104.188 52.1368 104.591 51.9268C105.003 51.7168 105.473 51.6118 106.002 51.6118H107.01C107.817 51.6118 108.463 51.8386 108.951 52.2922C109.438 52.7458 109.681 53.3506 109.681 54.1066V55.4422H105.019V55.7446C105.019 56.0218 105.108 56.2444 105.284 56.4124C105.46 56.5804 105.7 56.6644 106.002 56.6644H106.985C107.279 56.6644 107.514 56.6014 107.691 56.4754C107.875 56.341 107.968 56.1688 107.968 55.9588H109.656C109.656 56.3788 109.543 56.7526 109.316 57.0802C109.089 57.4078 108.77 57.6598 108.358 57.8362C107.955 58.0126 107.489 58.1008 106.96 58.1008H106.002ZM107.993 54.2074V54.1066C107.993 53.779 107.905 53.5186 107.728 53.3254C107.552 53.1238 107.317 53.023 107.023 53.023H106.002C105.7 53.023 105.456 53.128 105.271 53.338C105.087 53.548 104.994 53.8252 104.994 54.1696V54.2074H107.993ZM110.842 51.7126H112.43V52.519C112.589 52.2754 112.816 52.078 113.11 51.9268C113.413 51.7672 113.728 51.6874 114.055 51.6874H114.912V53.1742H114.055C113.61 53.1742 113.249 53.3086 112.972 53.5774C112.694 53.8462 112.556 54.1906 112.556 54.6106V58H110.842V51.7126Z" fill="#133E6F"/>
<path d="M0 30.9955C0 13.8754 13.6034 0 30.3878 0C41.155 0 50.6034 5.69789 56 14.3063L43.2584 22.6157C30.3878 14.2183 30.3878 14.2096 30.3878 14.2096L15.0603 24.2072L30.3878 34.2137V47.7902L43.2671 39.384L56 47.6935C50.6034 56.2928 41.1464 62 30.3878 62C13.6034 62 0 48.1243 0 30.9955Z" fill="#00956E"/>
<path fill-rule="evenodd" clip-rule="evenodd" d="M15.0603 24.2072L30.3878 34.2137V47.7902L15.0603 37.7837V24.2072Z" fill="#133E6F"/>
</svg>
