<svg width="46" height="38" viewBox="0 0 46 38" fill="none" xmlns="http://www.w3.org/2000/svg">
<path d="M1 23.2037H6.38775M1 23.2037V25.4074M1 23.2037V21.6296V21M6.38775 23.2037V26.8241V37H39.6122V26.8241V23.2037M6.38775 23.2037H39.6122M39.6122 23.2037H45M45 23.2037V25.4074M45 23.2037V21.3148V21" stroke="white" stroke-width="1.7"/>
<path d="M1 2.2037H6.38775M1 2.2037V4.40741M1 2.2037V0.62963V0M6.38775 2.2037V5.82407V16H39.6122V5.82407V2.2037M6.38775 2.2037H39.6122M39.6122 2.2037H45M45 2.2037V4.40741M45 2.2037V0.314815V0" stroke="white" stroke-width="1.7"/>
</svg>
